<svg xmlns="http://www.w3.org/2000/svg">

    <symbol id="logo" viewBox="0 0 196 61">
        <g>
            <path fill-rule="evenodd" clip-rule="evenodd" d="M60.0687 52.9199C53.777 53.1008 46.8242 53.3636 42.6243 48.8793C38.2231 44.1801 37.6095 37.1165 39.648 31.1165C41.4953 25.6794 46.878 22.5451 52.3519 20.2485C57.5161 18.0819 63.1572 17.0352 68.3837 19.0605C74.0542 21.2579 78.8878 25.4668 80.4308 31.1293C82.0264 36.9847 80.4619 43.401 76.2459 47.9128C72.2723 52.1652 66.029 52.7486 60.0687 52.9199Z" fill="#78C081" fill-opacity="0.15"/>
            <path d="M64.4574 25.9808V13.3718H70.7929C72.3352 13.3718 73.4504 13.7081 74.1385 14.3805C74.8385 15.041 75.1885 16.1098 75.1885 17.5868C75.1885 19.0639 74.8385 20.1386 74.1385 20.8111C73.4504 21.4836 72.3352 21.8198 70.7929 21.8198H66.9667V25.9808H64.4574ZM66.9667 19.4421H70.6505C71.3623 19.4421 71.8784 19.298 72.1988 19.0098C72.531 18.7096 72.6971 18.2353 72.6971 17.5868C72.6971 16.9504 72.531 16.488 72.1988 16.1998C71.8784 15.8996 71.3623 15.7495 70.6505 15.7495H66.9667V19.4421Z" fill="#495E4C"/>
            <path d="M79.7507 26.1429C78.5524 26.1429 77.6686 25.9148 77.0991 25.4584C76.5415 24.9901 76.2627 24.2456 76.2627 23.2248C76.2627 22.1801 76.5711 21.4356 77.1881 20.9913C77.805 20.5349 78.8016 20.3068 80.1778 20.3068H82.954C82.9066 19.6703 82.7108 19.214 82.3668 18.9378C82.0346 18.6496 81.5125 18.5055 80.8007 18.5055C79.6499 18.5055 78.9736 18.9198 78.7719 19.7484H76.4584C76.6008 18.5955 77.022 17.761 77.722 17.2446C78.4219 16.7162 79.4778 16.452 80.8897 16.452C82.432 16.452 83.5532 16.7763 84.2531 17.4247C84.9531 18.0612 85.3031 19.0939 85.3031 20.5229V25.9808H82.954V25.0982C82.2778 25.7947 81.21 26.1429 79.7507 26.1429ZM78.6118 23.1168C78.6118 23.7652 79.1872 24.0895 80.338 24.0895C81.1448 24.0895 81.7498 23.9454 82.1532 23.6571C82.5684 23.3569 82.8354 22.8946 82.954 22.2702V22.054H80.8007C79.3414 22.054 78.6118 22.4083 78.6118 23.1168Z" fill="#495E4C"/>
            <path d="M86.95 22.9907H89.2635C89.4889 23.7232 90.2422 24.0895 91.5236 24.0895C92.7574 24.0895 93.3744 23.8373 93.3744 23.3329C93.3744 22.8766 92.5973 22.5404 91.0431 22.3242C89.5956 22.1561 88.5694 21.8439 87.9643 21.3875C87.3593 20.9192 87.0567 20.2227 87.0567 19.298C87.0567 18.3254 87.3771 17.6108 88.0177 17.1545C88.6584 16.6862 89.6728 16.452 91.0609 16.452C92.4964 16.452 93.5642 16.7042 94.2642 17.2086C94.976 17.7009 95.3972 18.4995 95.5277 19.6043H93.2142C93.0837 19.22 92.8464 18.9438 92.5024 18.7757C92.1702 18.5955 91.6778 18.5055 91.0253 18.5055C89.8982 18.5055 89.3346 18.7396 89.3346 19.208C89.3346 19.6403 90.0465 19.9525 91.4702 20.1446C93.0362 20.3728 94.1218 20.703 94.7269 21.1354C95.3319 21.5557 95.6345 22.2221 95.6345 23.1348C95.6345 24.1435 95.2963 24.9 94.6201 25.4044C93.9557 25.8967 92.8998 26.1429 91.4524 26.1429C90.0287 26.1429 88.955 25.8907 88.2313 25.3864C87.5076 24.882 87.0805 24.0834 86.95 22.9907Z" fill="#495E4C"/>
            <path d="M101.535 26.1429C99.9098 26.1429 98.7293 25.7646 97.9937 25.0081C97.27 24.2396 96.9081 23.0027 96.9081 21.2975C96.9081 19.6043 97.2759 18.3734 98.0115 17.6048C98.7471 16.8363 99.9216 16.452 101.535 16.452C103.006 16.452 104.11 16.7582 104.845 17.3707C105.581 17.9711 106.014 18.9378 106.144 20.2707H103.831C103.7 19.7063 103.457 19.298 103.101 19.0459C102.745 18.7937 102.241 18.6676 101.589 18.6676C100.77 18.6676 100.171 18.8777 99.7911 19.298C99.4233 19.7063 99.2394 20.3728 99.2394 21.2975C99.2394 22.2101 99.4233 22.8766 99.7911 23.2969C100.171 23.7172 100.77 23.9273 101.589 23.9273C102.846 23.9273 103.594 23.393 103.831 22.3242H106.144C106.014 23.6571 105.581 24.6298 104.845 25.2423C104.11 25.8427 103.006 26.1429 101.535 26.1429Z" fill="#495E4C"/>
            <path d="M110.929 26.1429C109.73 26.1429 108.847 25.9148 108.277 25.4584C107.719 24.9901 107.441 24.2456 107.441 23.2248C107.441 22.1801 107.749 21.4356 108.366 20.9913C108.983 20.5349 109.98 20.3068 111.356 20.3068H114.132C114.085 19.6703 113.889 19.214 113.545 18.9378C113.213 18.6496 112.691 18.5055 111.979 18.5055C110.828 18.5055 110.152 18.9198 109.95 19.7484H107.636C107.779 18.5955 108.2 17.761 108.9 17.2446C109.6 16.7162 110.656 16.452 112.068 16.452C113.61 16.452 114.731 16.7763 115.431 17.4247C116.131 18.0612 116.481 19.0939 116.481 20.5229V25.9808H114.132V25.0982C113.456 25.7947 112.388 26.1429 110.929 26.1429ZM109.79 23.1168C109.79 23.7652 110.365 24.0895 111.516 24.0895C112.323 24.0895 112.928 23.9454 113.331 23.6571C113.746 23.3569 114.013 22.8946 114.132 22.2702V22.054H111.979C110.519 22.054 109.79 22.4083 109.79 23.1168Z" fill="#495E4C"/>
            <path d="M118.519 25.9808V12.4712H120.869V25.9808H118.519Z" fill="#495E4C"/>
            <path d="M126.932 13.3718H129.583L133.854 23.3149L138.108 13.3718H140.777L135.26 25.9808H132.448L126.932 13.3718Z" fill="#495E4C"/>
            <path d="M142.155 24.9901C141.407 24.2215 141.034 22.9907 141.034 21.2975C141.034 19.6043 141.407 18.3734 142.155 17.6048C142.902 16.8363 144.112 16.452 145.785 16.452C147.446 16.452 148.644 16.8363 149.38 17.6048C150.127 18.3734 150.501 19.6043 150.501 21.2975C150.501 21.4656 150.489 21.7178 150.465 22.054H143.436C143.59 23.411 144.379 24.0895 145.803 24.0895C146.871 24.0895 147.577 23.7232 147.921 22.9907H150.341C150.104 24.1555 149.599 24.9721 148.828 25.4404C148.057 25.9087 147.043 26.1429 145.785 26.1429C144.112 26.1429 142.902 25.7586 142.155 24.9901ZM145.803 18.5055C145.139 18.5055 144.611 18.6436 144.219 18.9198C143.828 19.196 143.578 19.6523 143.472 20.2888H148.134C148.027 19.6523 147.778 19.196 147.387 18.9198C147.007 18.6436 146.479 18.5055 145.803 18.5055Z" fill="#495E4C"/>
            <path d="M154.497 25.9808H152.148V16.6141H154.497V17.5508C155.114 16.8183 156.111 16.452 157.487 16.452C158.792 16.452 159.741 16.7883 160.334 17.4607C160.939 18.1332 161.242 19.214 161.242 20.703V25.9808H158.893V20.703C158.893 19.9945 158.721 19.4782 158.377 19.1539C158.044 18.8297 157.516 18.6676 156.793 18.6676C155.974 18.6676 155.387 18.8777 155.031 19.298C154.675 19.7063 154.497 20.3728 154.497 21.2975V25.9808Z" fill="#495E4C"/>
            <path d="M166.313 16.6141H168.84V18.8297H166.313V22.4323C166.313 22.9006 166.42 23.2429 166.633 23.459C166.847 23.6632 167.203 23.7652 167.701 23.7652H169V25.9808H167.63C166.348 25.9808 165.417 25.7226 164.836 25.2062C164.254 24.6899 163.964 23.8613 163.964 22.7205V18.8297H162.611V16.6141H163.964V14.5787H166.313V16.6141Z" fill="#495E4C"/>
            <path d="M66.6325 39.6705H69.1477V41.1436H66.6325V47.9965H65.0823V41.1436H63.627V39.6705H65.0823V39.3823C65.0823 38.1868 65.3407 37.3169 65.8574 36.7725C66.3742 36.2281 67.202 35.9559 68.341 35.9559H69.2426V37.4289H68.42C67.7978 37.4289 67.3444 37.5837 67.0596 37.8933C66.7749 38.2028 66.6325 38.6992 66.6325 39.3823V39.6705Z" fill="#78C081"/>
            <path d="M73.5828 47.9965H72.0325V39.6705H73.5828V40.7433C74.1206 39.9427 75.0592 39.5424 76.3985 39.5424H77.1104V41.0155H75.9556C75.1119 41.0155 74.5055 41.2396 74.1364 41.688C73.7673 42.1256 73.5828 42.8408 73.5828 43.8335V47.9965Z" fill="#78C081"/>
            <path d="M80.3086 47.0998C79.6548 46.4167 79.3278 45.3279 79.3278 43.8335C79.3278 42.3391 79.6548 41.2503 80.3086 40.5672C80.973 39.884 82.0434 39.5424 83.5198 39.5424C84.9857 39.5424 86.0403 39.884 86.6836 40.5672C87.3374 41.2503 87.6643 42.3391 87.6643 43.8335C87.6643 43.8869 87.6591 43.9669 87.6485 44.0737C87.6485 44.1804 87.6485 44.2605 87.6485 44.3138H80.9097C80.9625 45.1464 81.1997 45.7602 81.6216 46.1551C82.054 46.5501 82.692 46.7476 83.5356 46.7476C84.7695 46.7476 85.5552 46.3206 85.8926 45.4667H87.5062C87.2847 46.4487 86.8312 47.1372 86.1457 47.5321C85.4708 47.9271 84.5955 48.1245 83.5198 48.1245C82.0434 48.1245 80.973 47.783 80.3086 47.0998ZM83.5356 40.9194C82.7447 40.9194 82.133 41.0955 81.7007 41.4478C81.2788 41.7894 81.0257 42.3498 80.9414 43.129H86.1141C86.0297 42.3391 85.7766 41.7734 85.3548 41.4318C84.9435 41.0902 84.3371 40.9194 83.5356 40.9194Z" fill="#78C081"/>
            <path d="M90.3874 45.4667H91.9218C92.0589 45.915 92.3226 46.2405 92.7128 46.4433C93.103 46.6462 93.6566 46.7476 94.3737 46.7476C95.7763 46.7476 96.4776 46.406 96.4776 45.7228C96.4776 45.4133 96.2878 45.1678 95.9082 44.9863C95.5285 44.8048 94.9169 44.6501 94.0732 44.522C92.776 44.3512 91.8586 44.0737 91.3207 43.6894C90.7934 43.2944 90.5298 42.718 90.5298 41.9602C90.5298 41.1489 90.8092 40.5458 91.3682 40.1509C91.9271 39.7453 92.8077 39.5424 94.0099 39.5424C95.2121 39.5424 96.1191 39.7559 96.7307 40.1829C97.3424 40.5992 97.7221 41.2717 97.8697 42.2003H96.3353C96.1982 41.752 95.9451 41.4264 95.576 41.2236C95.2069 41.0208 94.6743 40.9194 93.9783 40.9194C92.6811 40.9194 92.0326 41.245 92.0326 41.8961C92.0326 42.195 92.2171 42.4352 92.5862 42.6166C92.9553 42.7874 93.5406 42.9369 94.3421 43.0649C95.7025 43.2784 96.6464 43.5666 97.1737 43.9296C97.7115 44.2925 97.9804 44.8475 97.9804 45.5947C97.9804 47.2813 96.7624 48.1245 94.3263 48.1245C93.1135 48.1245 92.1907 47.9111 91.558 47.4841C90.9252 47.0571 90.535 46.3846 90.3874 45.4667Z" fill="#78C081"/>
            <path d="M101.148 35.9879H102.699V40.7913C103.268 39.9587 104.265 39.5424 105.688 39.5424C106.88 39.5424 107.75 39.836 108.298 40.4231C108.847 41.0102 109.121 41.9441 109.121 43.2251V47.9965H107.587V43.2251C107.587 42.4565 107.397 41.8961 107.017 41.5439C106.638 41.1916 106.047 41.0155 105.245 41.0155C104.349 41.0155 103.7 41.2396 103.3 41.688C102.899 42.1256 102.699 42.8408 102.699 43.8335V47.9965H101.148V35.9879Z" fill="#78C081"/>
            <path d="M121.125 48.1245C120.028 48.1245 119.227 47.9271 118.721 47.5321C118.215 47.1372 117.961 46.5021 117.961 45.6268C117.961 44.7195 118.241 44.0737 118.8 43.6894C119.369 43.2944 120.282 43.097 121.536 43.097H124.336C124.336 42.3391 124.147 41.7894 123.767 41.4478C123.387 41.0955 122.781 40.9194 121.948 40.9194C121.283 40.9194 120.772 41.0315 120.413 41.2557C120.055 41.4691 119.812 41.8161 119.686 42.2964H118.151C118.299 41.3357 118.679 40.6366 119.29 40.1989C119.902 39.7613 120.809 39.5424 122.011 39.5424C123.361 39.5424 124.342 39.8253 124.953 40.391C125.576 40.9461 125.887 41.8374 125.887 43.0649V47.9965H124.336V46.9237C123.714 47.7243 122.644 48.1245 121.125 48.1245ZM119.512 45.5627C119.512 45.979 119.67 46.2832 119.986 46.4754C120.313 46.6568 120.814 46.7476 121.489 46.7476C122.385 46.7476 123.055 46.5821 123.498 46.2512C123.951 45.9203 124.231 45.3919 124.336 44.6661V44.2818H121.932C120.318 44.2818 119.512 44.7088 119.512 45.5627Z" fill="#78C081"/>
            <path d="M129.461 47.9965V39.6705H131.011V47.9965H129.461ZM129.445 38.0534C129.287 37.8933 129.208 37.6264 129.208 37.2528C129.208 36.8792 129.287 36.6124 129.445 36.4522C129.603 36.2921 129.867 36.2121 130.236 36.2121C130.605 36.2121 130.869 36.2921 131.027 36.4522C131.185 36.6124 131.264 36.8792 131.264 37.2528C131.264 37.6264 131.185 37.8933 131.027 38.0534C130.869 38.2135 130.605 38.2936 130.236 38.2936C129.867 38.2936 129.603 38.2135 129.445 38.0534Z" fill="#78C081"/>
            <path d="M136.17 47.9965H134.619V39.6705H136.17V40.7433C136.707 39.9427 137.646 39.5424 138.985 39.5424H139.697V41.0155H138.542C137.699 41.0155 137.092 41.2396 136.723 41.688C136.354 42.1256 136.17 42.8408 136.17 43.8335V47.9965Z" fill="#78C081"/>
            <path fill-rule="evenodd" clip-rule="evenodd" d="M3.16091 20.4389C1.1531 27.69 0.693871 35.2889 1.17179 42.7509C0.955527 45.1231 2.2291 47.4136 3.92185 49.0478C6.39958 51.4253 11.2803 51.1011 14.4842 50.7663C20.3181 50.2022 22.9133 44.8094 23.255 39.6143C23.5167 30.6341 23.5808 21.198 23.5621 12.202C23.558 11.9459 23.5586 11.677 23.5591 11.4005C23.5615 10.2151 23.5642 8.89141 23.207 7.83981C22.3392 4.90354 19.6399 3.84922 16.9272 4.41328C16.3791 4.58941 15.8511 4.82175 15.352 5.1065C13.7229 6.00075 12.2005 7.07229 10.813 8.30107C8.03923 10.7181 5.83324 13.7036 4.34905 17.0493C4.20244 17.3522 4.05365 17.7658 3.9159 18.1487C3.8379 18.3656 3.76344 18.5726 3.69491 18.7441C3.55304 19.0991 3.40819 19.5959 3.2816 20.03C3.23904 20.176 3.19854 20.3149 3.16091 20.4389ZM1.17179 42.7509C2.01817 35.1572 3.20897 27.5951 5.91898 20.4468C7.38926 16.6812 9.83666 13.3634 13.0157 10.8262C13.3071 10.578 13.7393 10.2568 14.0916 9.99488C14.1622 9.94239 14.2296 9.89229 14.292 9.84565C14.292 9.84565 16.476 7.95842 17.6588 7.85563C18.8416 7.75283 19.4904 7.83718 19.7574 9.13398L19.8402 9.7534L19.8588 10.4387C19.8402 13.5463 19.8268 19.2897 19.8588 22.4526C19.8989 27.0152 19.9523 31.5777 20.0591 36.1377L20.1312 39.464C20.1192 40.5005 19.9993 41.533 19.7734 42.5453C19.2608 44.9412 17.9578 47.2739 15.5949 48.2175C14.073 48.7684 12.4203 48.9845 10.8184 49.1743C8.94138 49.3377 6.97629 49.4352 5.24348 48.6656C3.1262 47.4162 1.41743 45.2522 1.17179 42.7509Z" fill="#78C081"/>
            <path d="M48.6966 22.4405C49.7224 25.0125 51.591 29.0332 52.2367 33.8637C51.7739 25.0367 51.1714 25.0125 50.8732 23.6591C50.3959 21.4926 49.7574 19.364 48.9628 17.2906C46.6855 11.9451 42.6044 7.54541 37.4145 4.84103C36.9728 4.59707 36.4931 4.42766 35.995 4.33978C35.7095 4.32395 35.5441 4.27646 35.1465 4.27646C32.4382 4.12345 30.389 5.87783 29.9221 8.45269C29.6766 9.56864 29.7433 10.9379 29.7433 12.038C29.7113 18.0082 29.6979 25.4162 29.7966 31.4206C29.8367 33.5787 29.8634 35.7367 29.9221 37.8947C29.9128 39.0599 30.002 40.2239 30.1889 41.3745C31.0828 46.6007 34.0659 50.6397 39.7653 50.8719C42.599 51.075 45.6221 51.1937 48.2583 49.9221C50.3262 48.7904 51.1682 46.8782 51.7739 44.7677C52.1699 43.3878 52.7064 41.9757 54.96 39.72C52.7064 41.0735 51.9604 41.7544 50.4528 45.5849C48.433 48.9934 46.9829 49.4103 43.21 49.1755C42.1584 49.0951 41.1125 48.9541 40.0775 48.7534C39.1382 48.5661 38.111 48.3867 37.2705 47.9356C34.6796 46.6244 33.6096 43.6802 33.3081 40.9471C33.2042 39.9568 33.1801 38.96 33.236 37.9659C33.3268 34.2092 33.4335 28.8194 33.4335 25.0125C33.4335 21.2056 33.4895 15.7683 33.4335 12.0169C33.4442 10.9062 33.2067 9.20721 33.7804 8.26802C34.1859 7.59265 34.8486 7.38261 35.9443 7.90131C40.5768 10.1358 44.3619 13.781 46.7428 18.301C47.4364 19.7166 48.2528 21.3278 48.6966 22.4405Z" fill="#78C081"/>
            <path d="M26.8689 10.6234C27.0571 10.2378 26.9009 9.77076 26.52 9.58016C26.1391 9.38956 25.6777 9.54762 25.4895 9.93319L21.855 17.3776C21.6667 17.7632 21.8229 18.2303 22.2038 18.4209C22.5847 18.6115 23.0461 18.4534 23.2343 18.0679L26.8689 10.6234Z" fill="#78C081"/>
            <path d="M25.9575 10.6234C25.7692 10.2378 25.9254 9.77076 26.3063 9.58016C26.6872 9.38956 27.1486 9.54762 27.3369 9.93319L30.9714 17.3776C31.1596 17.7632 31.0035 18.2303 30.6225 18.4209C30.2416 18.6115 29.7803 18.4534 29.592 18.0679L25.9575 10.6234Z" fill="#78C081"/>
            <path d="M25.6166 0.778697C25.6166 0.348634 25.9611 0 26.386 0C26.8109 0 27.1553 0.348635 27.1553 0.778698V10.6445C27.1553 11.0746 26.8109 11.4232 26.386 11.4232C25.9611 11.4232 25.6166 11.0746 25.6166 10.6445V0.778697Z" fill="#78C081"/>
            <path d="M49.3895 47.8816C49.1544 47.4178 48.9167 46.9899 48.6743 46.5623C48.4318 46.1348 48.185 45.7132 47.9261 45.2905C47.6672 44.8677 47.3951 44.4647 47.1303 44.0631C47.0615 43.9582 46.9836 43.8632 46.9102 43.7623C46.8368 43.6615 46.7566 43.5667 46.6762 43.4681C46.5957 43.3696 46.5085 43.2772 46.4182 43.1755C46.3754 43.1264 46.3284 43.0796 46.2777 43.0355C46.2292 42.9877 46.1783 42.9401 46.1319 42.8884C46.4444 42.9529 46.7377 43.0618 46.9977 43.2098C47.1293 43.2817 47.2543 43.3606 47.3719 43.446C47.4918 43.5295 47.6054 43.6185 47.712 43.7126C48.1343 44.0834 48.4871 44.5006 48.76 44.952C49.0355 45.3992 49.239 45.8731 49.3661 46.3632C49.5072 46.8592 49.5152 47.3763 49.3895 47.8816Z" fill="#78C081"/>
            <path d="M49.1646 42.8688C48.9485 42.3433 48.5946 41.881 48.136 41.5255C47.6954 41.1791 47.1921 40.9114 46.6498 40.7348C46.103 40.5627 45.5376 40.4468 44.9631 40.389C44.3824 40.3227 43.7863 40.2915 43.183 40.2612L43.686 39.7522C43.7831 40.495 43.8969 41.2333 43.9769 41.9785C44.0254 42.3499 44.0596 42.7256 44.1194 43.0696C44.1425 43.246 44.1793 43.4135 44.2231 43.5777C44.2687 43.7423 44.3263 43.9035 44.3956 44.0601C44.6781 44.697 45.13 45.2508 45.7074 45.6678C46.3128 46.1115 47.028 46.4015 47.7875 46.5113C46.9678 46.608 46.1412 46.4567 45.4253 46.0788C44.6777 45.6943 44.0678 45.1085 43.6706 44.3934C43.5719 44.2101 43.4872 44.0202 43.4172 43.825C43.3498 43.6345 43.2961 43.4396 43.2565 43.2418C43.1695 42.8424 43.1213 42.4733 43.0642 42.1125C42.9491 41.3649 42.8524 40.6244 42.7553 39.8815L42.6831 39.329L43.2608 39.3721C43.881 39.4158 44.4977 39.4909 45.1084 39.5972C45.7369 39.702 46.3465 39.8865 46.9211 40.1457C47.5032 40.4091 48.018 40.7878 48.4317 41.2568C48.8434 41.7082 49.099 42.2704 49.1646 42.8688Z" fill="#78C081"/>
            <path d="M50.2151 42.5803C50.0157 42.2485 49.8759 41.8779 49.8049 41.4931C49.7329 41.1031 49.7092 40.7085 49.7345 40.3213C49.8007 39.5472 49.9871 38.8059 50.2853 38.1321C50.5776 37.4451 50.96 36.8212 51.4202 36.2803C51.6615 36.0024 51.9319 35.76 52.2262 35.5576C52.5178 35.3644 52.8251 35.2011 53.145 35.0694C53.4581 34.9312 53.7765 34.8282 54.0904 34.7303C54.4042 34.6324 54.713 34.5473 55.0273 34.4603C55.6497 34.2957 56.2571 34.1325 56.8306 33.9218C57.3838 33.7296 57.9038 33.4463 58.3755 33.0801C58.8725 32.7007 59.2734 32.1819 59.5456 31.566C59.7498 31.0525 59.9198 30.5099 60.1075 29.9836C60.0554 30.1372 60.2275 30.679 60.2565 30.8642C60.4136 31.8532 60.4812 32.8489 60.4582 33.8347C60.4511 34.4824 60.4052 35.1245 60.3207 35.7566L60.2826 36.0011L60.1497 36.6967C60.0876 37.0007 60.0199 37.3066 59.9372 37.6139C59.7668 38.2396 59.5107 38.8217 59.178 39.3397C59.0119 39.5937 58.8291 39.832 58.6312 40.0527C58.4291 40.2675 58.2273 40.4639 58.0195 40.6513C57.6033 41.027 57.1605 41.3636 56.6947 41.6583C55.7692 42.2458 54.7567 42.6548 53.6933 42.8706C54.6505 42.4234 55.5492 41.8444 56.3714 41.1451C56.7759 40.8024 57.1588 40.4283 57.5178 40.0251C57.8723 39.6412 58.1872 39.2114 58.4574 38.7427C58.7041 38.2767 58.8833 37.7625 58.9887 37.2184C59.0472 36.9413 59.0969 36.6561 59.1406 36.3619L59.2037 35.9178L59.2361 35.6936L59.2616 35.4864C59.3151 34.9028 59.3385 34.3128 59.3319 33.7194C59.3313 33.1164 59.6704 33.6979 59.0969 34.1661C58.5346 34.61 57.908 34.9442 57.2392 35.1567C56.5991 35.3714 55.9559 35.5098 55.3316 35.6493C54.7072 35.7887 54.0824 35.9173 53.5108 36.1053C53.2297 36.1941 52.958 36.3111 52.6984 36.4549C52.4424 36.5988 52.2042 36.7774 51.9882 36.9873C51.5326 37.4228 51.1377 37.9352 50.8147 38.51C50.4757 39.0822 50.2257 39.7239 50.0747 40.4096C49.9078 41.1076 49.9573 41.873 50.2151 42.5803Z" fill="#78C081"/>
        </g>
    </symbol>

    <symbol id="logo-MR-group" viewBox="0 0 110 24">
        <g>
            <path d="M40.1 23.9L35 14.8H31.8C33.7 14.6 35.3 13.9 36.6 12.8C38.3 11.4 39.2 9.6 39.2 7.5C39.2 5.4 38.3 3.6 36.6 2.2C34.9 0.7 32.7 0 30.2 0H19L12.4 17.2L5.6 0H0V23.9H1.4V2.6L9.8 23.9H11.4L19.4 2.7V23.9H24.6V14.9H29.3L34.3 23.9H40.1ZM24.6 13.7V1.2H28.5C31.3 1.2 33.2 3.7 33.2 7.5C33.2 11.3 31.3 13.8 28.5 13.8H24.6V13.7Z" fill="#00263A"></path>
            <path d="M69.5 18L67 13.4H65.4C66.3 13.3 67.1 12.9 67.8 12.4C68.7 11.7 69.1 10.8 69.1 9.7C69.1 8.6 68.7 7.8 67.8 7.1C66.9 6.4 65.9 6 64.6 6H59.2V18H61.8V13.5H64.2L66.7 18H69.5ZM61.8 12.9V6.6H63.7C65.1 6.6 66 7.8 66 9.7C66 11.6 65.1 12.8 63.7 12.8H61.8V12.9Z" fill="#00263A"></path>
            <path d="M77.3 18C75.5 18 74 17.4 72.8 16.3C71.6 15.1 71 13.7 71 12C71 10.3 71.6 8.8 72.8 7.7C74 6.5 75.5 6 77.3 6C79.1 6 80.6 6.6 81.8 7.7C83 8.9 83.6 10.3 83.6 12C83.6 13.7 83 15.2 81.8 16.3C80.6 17.5 79.1 18 77.3 18ZM77.3 17.6C78.4 17.6 79.2 17.1 79.9 16.1C80.6 15.1 80.9 13.7 80.9 12C80.9 10.3 80.6 9 79.9 7.9C79.3 6.9 78.4 6.4 77.3 6.4C76.2 6.4 75.4 6.9 74.7 7.9C74.1 8.9 73.7 10.3 73.7 12C73.7 13.7 74 15 74.7 16.1C75.3 17.1 76.2 17.6 77.3 17.6Z" fill="#00263A"></path>
            <path d="M94.8 6C94.8 6 94.8 14.3 94.8 15.8C94.2 16.7 93.2 17.2 91.9 17.2C89.7 17.2 88.3 15.8 88.3 13.4V6H85.7V13.1C85.7 14.5 86.2 15.7 87.2 16.6C88.2 17.5 89.5 17.9 91.1 17.9C92.6 17.9 93.7 17.5 94.6 16.7C94.8 16.5 95 16.3 95.1 16.1L97 18H97.4V6H94.8Z" fill="#00263A"></path>
            <path d="M105.4 6C106.7 6 107.7 6.4 108.6 7.1C109.5 7.8 109.9 8.7 109.9 9.7C109.9 10.8 109.5 11.6 108.6 12.4C107.7 13.1 106.7 13.5 105.4 13.5H102.6V18H100V6H105.4ZM104.6 12.9C106 12.9 106.9 11.7 106.9 9.8C106.9 7.9 106 6.7 104.6 6.7H102.7V12.9H104.6Z" fill="#00263A"></path>
            <path d="M54 12.8999C54 12.8999 54 14.5999 54 15.8999C53.7 16.9999 52.7 17.6999 51.3 17.6999C50.1 17.6999 49.3 17.1999 48.6 16.1999C47.9 15.1999 47.6 13.8999 47.6 12.1999C47.6 8.5999 49.3 6.4999 52.1 6.4999C53.1 6.4999 53.9 6.6999 54.5 7.1999C55.2 7.6999 55.5 8.2999 55.5 9.0999H56C56 8.1999 55.5 7.2999 54.7 6.6999C53.9 6.0999 52.8 5.8999 51.5 5.8999C49.6 5.8999 48.1 6.4999 46.8 7.5999C45.6 8.7999 45 10.2999 45 11.9999C45 13.6999 45.6 15.1999 46.8 16.3999C48 17.5999 49.6 18.0999 51.3 18.0999C52.9 18.0999 54.2 17.5999 54.8 16.6999L56.2 17.9999H56.6V12.8999H54Z" fill="#00263A"></path>
        </g>
    </symbol>

    <symbol id="logo-etalon" viewBox="0 0 176 31">
        <g>
            <path d="M9.55063 31C7.93579 31 6.40169 30.7713 4.94833 30.314C3.49498 29.828 2.17619 29.1277 0.991973 28.213C0.588263 27.8986 0.305666 27.5413 0.144182 27.1411C0.00961213 26.7123 -0.0307589 26.2835 0.0230692 25.8548C0.103811 25.426 0.265295 25.083 0.507521 24.8257C0.749747 24.5399 1.05926 24.3827 1.43605 24.3541C1.83976 24.2969 2.27039 24.4398 2.72793 24.7828C3.77757 25.5832 4.84068 26.1692 5.91724 26.5408C7.02071 26.8838 8.20493 27.0553 9.46989 27.0553C11.4077 27.0553 13.0629 26.6266 14.4355 25.769C15.8081 24.9115 16.8847 23.6823 17.6652 22.0816C18.4457 20.4523 18.8629 18.4514 18.9167 16.0788L20.2489 17.0221H6.72466C6.13255 17.0221 5.67501 16.8792 5.35204 16.5934C5.05599 16.2789 4.90796 15.8359 4.90796 15.2642C4.90796 14.6925 5.05599 14.2494 5.35204 13.935C5.67501 13.6206 6.13255 13.4633 6.72466 13.4633H20.2086L18.9167 14.6639C18.809 12.4057 18.3919 10.4763 17.6652 8.87552C16.9385 7.27478 15.9023 6.05994 14.5566 5.23098C13.2378 4.37344 11.623 3.94467 9.71211 3.94467C8.47407 3.94467 7.28985 4.14477 6.15946 4.54495C5.05599 4.91655 3.99289 5.44537 2.97015 6.1314C2.4857 6.47441 2.04162 6.63163 1.63791 6.60304C1.2342 6.54587 0.897774 6.38866 0.628634 6.1314C0.359494 5.87414 0.171096 5.5597 0.0634401 5.1881C-0.0173019 4.78792 0.00961213 4.38774 0.144182 3.98755C0.305666 3.55878 0.588263 3.20148 0.991973 2.91563C2.28385 1.91517 3.69683 1.18626 5.23093 0.728908C6.76503 0.242969 8.31258 0 9.8736 0C12.6996 0 15.1084 0.643154 17.1 1.92946C19.1186 3.18718 20.6527 4.97372 21.7023 7.28907C22.752 9.60443 23.2768 12.3343 23.2768 15.4786C23.2768 17.8797 22.9673 20.0378 22.3482 21.953C21.7292 23.8396 20.8276 25.4689 19.6434 26.8409C18.4861 28.1844 17.0596 29.2135 15.3641 29.9281C13.6685 30.6427 11.7307 31 9.55063 31Z" fill="#0A2635"/>
            <path d="M38.6111 30.9142C37.9383 30.9142 37.4135 30.7142 37.0367 30.314C36.6868 29.9138 36.5118 29.3564 36.5118 28.6418V4.11618H27.9532C27.388 4.11618 26.9439 3.95897 26.6209 3.64454C26.298 3.30152 26.1365 2.82988 26.1365 2.2296C26.1365 1.62932 26.298 1.17197 26.6209 0.85754C26.9439 0.543108 27.388 0.385892 27.9532 0.385892H49.2287C49.8208 0.385892 50.2784 0.543108 50.6013 0.85754C50.9243 1.17197 51.0858 1.62932 51.0858 2.2296C51.0858 2.82988 50.9243 3.30152 50.6013 3.64454C50.2784 3.95897 49.8208 4.11618 49.2287 4.11618H40.6701V28.6418C40.6701 29.3564 40.4951 29.9138 40.1452 30.314C39.8223 30.7142 39.3109 30.9142 38.6111 30.9142Z" fill="#0A2635"/>
            <path d="M53.1182 30.9142C52.5799 30.9142 52.1493 30.7856 51.8263 30.5284C51.5034 30.2711 51.315 29.9281 51.2611 29.4993C51.2073 29.0705 51.2881 28.5846 51.5034 28.0415L62.4439 1.97234C62.7131 1.28631 63.0495 0.80037 63.4532 0.514524C63.8838 0.228678 64.3548 0.0857552 64.8662 0.0857552C65.3506 0.0857552 65.7947 0.228678 66.1984 0.514524C66.629 0.80037 66.9789 1.28631 67.2481 1.97234L78.1886 28.0415C78.4308 28.5846 78.525 29.0848 78.4712 29.5422C78.4174 29.971 78.2424 30.314 77.9464 30.5712C77.6503 30.7999 77.2332 30.9142 76.6949 30.9142C76.1028 30.9142 75.6318 30.757 75.2819 30.4426C74.932 30.1282 74.6225 29.6422 74.3534 28.9848L71.5274 22.0387L73.4248 23.2393H56.2268L58.0838 22.0387L55.2982 28.9848C55.0291 29.6708 54.733 30.171 54.4101 30.4855C54.0871 30.7713 53.6565 30.9142 53.1182 30.9142ZM64.7854 5.31674L58.6894 20.6667L57.6801 19.6376H71.9311L71.0026 20.6667L64.8662 5.31674H64.7854Z" fill="#0A2635"/>
            <path d="M106.825 30.9142C106.152 30.9142 105.627 30.7142 105.25 30.314C104.901 29.9138 104.726 29.3564 104.726 28.6418V4.11618H93.341V10.6335C93.341 13.4062 93.1795 15.8502 92.8565 17.9654C92.5336 20.0807 92.0626 21.9387 91.4435 23.5394C90.8514 25.1116 90.0978 26.4693 89.1828 27.6127C88.2946 28.7561 87.2584 29.7423 86.0742 30.5712C85.5898 30.9428 85.0918 31.0715 84.5805 30.9571C84.096 30.8428 83.6654 30.5284 83.2886 30.0138C82.9656 29.4707 82.858 28.9419 82.9656 28.4274C83.1002 27.9129 83.4366 27.4698 83.9749 27.0982C84.8631 26.4979 85.6436 25.7404 86.3164 24.8257C87.0162 23.911 87.5948 22.7819 88.0524 21.4384C88.5099 20.0664 88.8598 18.4085 89.102 16.4647C89.3443 14.521 89.4654 12.2056 89.4654 9.51867V2.787C89.4654 2.01521 89.6538 1.42923 90.0306 1.02905C90.4343 0.600277 90.9995 0.385892 91.7261 0.385892H106.663C107.39 0.385892 107.942 0.600277 108.319 1.02905C108.695 1.42923 108.884 2.01521 108.884 2.787V28.6418C108.884 29.3564 108.709 29.9138 108.359 30.314C108.009 30.7142 107.498 30.9142 106.825 30.9142Z" fill="#0A2635"/>
            <path d="M130.325 31C127.633 31 125.278 30.3711 123.26 29.1134C121.268 27.8271 119.72 26.0263 118.617 23.7109C117.54 21.367 117.002 18.6229 117.002 15.4786C117.002 13.106 117.312 10.9765 117.931 9.0899C118.55 7.17474 119.438 5.54541 120.595 4.20194C121.753 2.82988 123.152 1.78654 124.794 1.07192C126.436 0.357308 128.279 0 130.325 0C133.043 0 135.398 0.628862 137.39 1.88658C139.381 3.14431 140.915 4.93084 141.992 7.2462C143.095 9.56155 143.647 12.2914 143.647 15.4357C143.647 17.8082 143.338 19.9521 142.719 21.8672C142.099 23.7824 141.198 25.426 140.014 26.7981C138.856 28.1701 137.457 29.2135 135.815 29.9281C134.173 30.6427 132.343 31 130.325 31ZM130.325 27.1411C132.209 27.1411 133.81 26.6837 135.129 25.769C136.474 24.8543 137.497 23.5251 138.197 21.7815C138.924 20.0378 139.287 17.9368 139.287 15.4786C139.287 11.7911 138.506 8.93269 136.945 6.90318C135.384 4.87368 133.178 3.85892 130.325 3.85892C128.441 3.85892 126.826 4.31628 125.48 5.23098C124.161 6.1171 123.139 7.432 122.412 9.17566C121.712 10.9193 121.362 13.0203 121.362 15.4786C121.362 19.1374 122.143 21.9959 123.704 24.0539C125.292 26.112 127.499 27.1411 130.325 27.1411Z" fill="#0A2635"/>
            <path d="M153.796 30.9142C153.123 30.9142 152.598 30.7142 152.221 30.314C151.872 29.9138 151.697 29.3564 151.697 28.6418V2.35823C151.697 1.61503 151.872 1.05763 152.221 0.686032C152.598 0.285847 153.123 0.0857552 153.796 0.0857552C154.469 0.0857552 154.98 0.285847 155.33 0.686032C155.707 1.05763 155.895 1.61503 155.895 2.35823V13.4205H171.842V2.35823C171.842 1.61503 172.017 1.05763 172.367 0.686032C172.743 0.285847 173.268 0.0857552 173.941 0.0857552C174.614 0.0857552 175.125 0.285847 175.475 0.686032C175.825 1.05763 176 1.61503 176 2.35823V28.6418C176 29.3564 175.825 29.9138 175.475 30.314C175.125 30.7142 174.614 30.9142 173.941 30.9142C173.268 30.9142 172.743 30.7142 172.367 30.314C172.017 29.9138 171.842 29.3564 171.842 28.6418V17.1508H155.895V28.6418C155.895 29.3564 155.72 29.9138 155.37 30.314C155.021 30.7142 154.496 30.9142 153.796 30.9142Z" fill="#0A2635"/>
        </g>
    </symbol>

    <symbol id="logo-ingrand" viewBox="0 0 96 53">
        <g>
            <path d="M85.0946 31.6998C85.0946 33.2233 85.0946 34.7386 85.0946 36.2621C85.0946 36.5271 85.0863 36.7507 85.4589 36.7424C86.494 36.7093 87.5455 36.7755 88.5806 36.6761C90.1124 36.5271 91.3544 35.8316 92.0003 34.3329C92.5799 32.9915 92.613 31.5756 92.3315 30.1514C91.934 28.1641 90.5844 26.9304 88.5971 26.7731C87.5952 26.6903 86.585 26.7317 85.5749 26.682C85.1691 26.6654 85.0863 26.8145 85.0863 27.1954C85.1029 28.7024 85.0863 30.2011 85.0863 31.7081M81.708 23.7343C81.708 23.7343 81.766 23.7011 81.7743 23.7011C84.5978 23.726 87.4462 23.3699 90.2366 23.9495C93.0767 24.5374 95.097 26.4667 95.718 29.5055C96.1321 31.5342 96.0327 33.5048 95.2461 35.4258C94.4512 37.3634 93.027 38.6468 91.0812 39.243C90.0379 39.5659 88.92 39.715 87.8271 39.7646C85.9143 39.8474 83.9851 39.7895 82.0641 39.7895C81.9564 39.7895 81.8405 39.7729 81.6915 39.7646V23.726L81.708 23.7343Z" fill="#222222"></path> 
            <path d="M51.9014 31.2452C53.0026 31.2452 54.0377 31.2452 55.0727 31.2452C55.3459 31.2452 55.6274 31.2452 55.8924 31.1955C57.2421 30.9306 57.9293 30.1108 57.8714 28.8522C57.8217 27.6516 57.0599 26.8567 55.702 26.7574C54.551 26.6663 53.3918 26.716 52.2409 26.6911C51.9842 26.6911 51.8931 26.7905 51.9014 27.0389C51.9014 27.6682 51.9014 28.2975 51.9014 28.9268V31.2535V31.2452ZM62.6159 39.7903C61.2745 39.7903 60.0573 39.7903 58.8484 39.782C58.7325 39.782 58.5917 39.6578 58.5089 39.5502C57.2255 37.8693 55.9504 36.1719 54.6504 34.4993C54.5096 34.3171 54.2115 34.1764 53.9714 34.1515C53.4415 34.1019 51.9179 34.1267 51.9179 34.1267C51.9179 34.1267 51.9014 34.2592 51.9014 34.6152C51.9179 36.1222 51.9014 37.6209 51.9014 39.1279V39.7489H48.5231V23.702C48.6556 23.6854 48.7715 23.6606 48.8791 23.6606C51.2058 23.6606 53.5326 23.6523 55.8593 23.6854C57.0268 23.702 58.1363 24.0166 59.1548 24.6294C60.5376 25.4574 61.2 26.7325 61.3076 28.2975C61.3573 28.993 61.3076 29.7217 61.1503 30.4089C60.8191 31.9076 59.842 32.8764 58.4758 33.4726C58.3019 33.5471 58.1281 33.6299 57.8962 33.7375C59.4529 35.7413 60.993 37.7203 62.5993 39.7903" fill="#222222"></path> 
            <path d="M71.8379 27.1716C70.9933 29.4072 70.157 31.6263 69.3042 33.8868H74.4048C73.5436 31.6263 72.699 29.4072 71.8462 27.1716M80.1429 39.7823C79.0085 39.7823 77.9321 39.7906 76.864 39.774C76.748 39.774 76.5824 39.5836 76.5245 39.4428C76.2181 38.6976 75.9283 37.9441 75.6633 37.1823C75.564 36.8925 75.4232 36.7766 75.1003 36.7766C72.9475 36.7931 70.8029 36.7931 68.6501 36.7766C68.3189 36.7766 68.1615 36.8842 68.0539 37.2071C67.7806 37.9772 67.4577 38.739 67.1431 39.5007C67.0934 39.6167 66.9361 39.774 66.8284 39.7823C65.752 39.8071 64.6839 39.7906 63.5412 39.7906C63.9055 38.8632 64.245 37.9938 64.5928 37.1243C66.3399 32.7773 68.1036 28.4302 69.8507 24.0748C69.9749 23.7685 70.1239 23.6525 70.4551 23.6608C71.4156 23.6774 72.3761 23.6691 73.3366 23.6608C73.585 23.6608 73.7423 23.7022 73.8583 23.9755C75.92 29.1423 77.9983 34.3008 80.0684 39.4593C80.0932 39.5339 80.1098 39.6084 80.1595 39.774" fill="#222222"></path> 
            <path d="M18.9736 39.7985H15.587V23.7102C16.6303 23.7102 17.6488 23.7102 18.6673 23.7185C18.7749 23.7185 18.8991 23.8758 18.9819 23.9917C21.0933 26.9891 23.1965 29.9866 25.3079 32.984C25.5646 33.34 25.8213 33.6961 26.136 34.1349V23.7268H29.4894V39.8151C28.4627 39.8151 27.4442 39.8234 26.4258 39.7985C26.3098 39.7985 26.1691 39.6164 26.078 39.4922C23.8175 36.2795 21.557 33.0668 19.3048 29.8541C19.2303 29.7382 19.1309 29.6388 18.9736 29.4566V39.7985V39.7985Z" fill="#222222"></path> 
            <path d="M11.0139 23.7263H7.66046V39.7733H11.0139V23.7263Z" fill="#222222"></path> 
            <path d="M45.0451 30.9801C45.0451 30.8642 45.0202 30.6654 44.8049 30.6654C44.7138 30.6654 44.631 30.6654 44.5482 30.6654H44.126C43.3725 30.6489 42.6107 30.6572 41.8158 30.6572H39.0751V33.7788H41.8075C41.8075 34.5902 41.8075 35.3934 41.8241 36.1386C41.8075 37.008 41.4929 37.008 40.9547 37.1157C40.5572 37.1902 40.1018 37.1902 39.4477 37.1405C38.0649 37.0246 36.798 36.5775 35.8541 35.4679C35.0261 34.4992 34.7777 33.3151 34.6949 32.0648C34.5458 29.6718 35.8458 27.668 38.0897 26.9559C40.2343 26.277 42.2878 26.5916 44.2667 27.6018C44.3744 27.6597 44.482 27.7011 44.6642 27.7839C44.6642 26.8317 44.6476 25.954 44.6724 25.0763C44.689 24.712 44.5731 24.5216 44.2336 24.3974C42.0559 23.5693 39.8368 23.2878 37.5515 23.8012C35.8624 24.1821 34.3554 24.919 33.1962 26.2521C31.2669 28.4712 30.9191 31.1208 31.449 33.8947C32.0535 37.0577 34.0573 38.9787 37.0878 39.8067C39.6878 40.5188 42.8591 40.2207 44.7056 39.2271C44.8463 39.1692 45.0202 38.9622 45.0202 38.8214C45.0368 36.3787 45.0368 33.4393 45.0202 30.9966" fill="#222222"></path> 
            <path d="M29.4856 0.21875L0 16.0338V47.4322H29.4856V44.0787H3.35346V18.0376L26.1322 5.82441V19.4287H29.4856V0.21875Z" fill="#FFC400"></path>
        </g>
    </symbol>

    <symbol id="logo-krost" viewBox="0 0 144 28">
        <g>
            <path d="M53.6957 12.6415L61.0488 2.02612H54.385L48.4106 11.2569H48.1809V2.02612H42.666V24.8723H48.1809V14.7184H48.4106L54.8446 24.8723H61.7382L53.6957 12.6415Z" fill="#0D50A0"></path>
            <path d="M126.536 2.02612V6.64151H132.281V24.6415H138.025V6.64151H144V2.02612H126.536Z" fill="#0D50A0"></path>
            <path d="M123.775 19.3335C122.626 19.795 121.247 20.2566 119.638 20.2566C116.192 20.2566 112.745 17.7181 112.745 13.3335C112.745 8.94888 116.192 6.41042 119.409 6.41042C121.247 6.41042 122.396 6.64119 123.545 7.10273L124.924 2.48734C122.626 1.56426 121.017 1.3335 118.49 1.3335C112.285 1.3335 106.771 6.17965 106.771 13.1027C106.771 20.9489 112.515 25.1027 118.719 25.1027C121.017 25.1027 123.085 24.6412 125.153 23.9489L123.775 19.3335Z" fill="#0D50A0"></path>
            <path d="M70.0104 1.5647C67.7126 1.5647 65.4147 1.79547 63.3467 2.02624V24.8724H69.0913V16.7955H70.6998C77.5933 16.7955 80.121 13.1032 80.121 9.18008C80.121 4.5647 76.4444 1.5647 70.0104 1.5647ZM70.47 12.4109H69.0913V6.18008H69.3211C70.0104 6.18008 70.47 6.18008 71.1594 6.18008C73.2274 6.18008 74.6061 7.5647 74.6061 9.18008C74.3764 10.7955 73.2274 12.4109 70.47 12.4109Z" fill="#0D50A0"></path>
            <path d="M93.2213 1.3335C86.5575 1.3335 81.2725 6.17965 81.2725 13.3335C81.2725 20.4873 86.5575 25.3335 93.2213 25.3335C99.885 25.3335 105.17 20.4873 105.17 13.3335C104.94 6.17965 99.885 1.3335 93.2213 1.3335ZM93.2213 20.7181C90.0043 20.7181 87.4767 17.9489 87.4767 13.5643C87.4767 8.94888 90.0043 6.41042 93.2213 6.41042C96.4383 6.41042 98.9659 9.17965 98.9659 13.5643C98.9659 17.9489 96.4383 20.7181 93.2213 20.7181Z" fill="#0D50A0"></path>
            <path d="M20.4839 0H11.6119L0 20.2441L4.43601 28H27.6598L32.0958 20.2441L20.4839 0ZM27.2684 27.0798L23.4847 20.3755H8.74154L4.95789 27.0798L1.17423 20.3755H8.74154L16.0479 7.49295L12.2643 0.920186H19.962L16.1783 7.6244L23.4847 20.507H31.1825L27.2684 27.0798Z" fill="#0D50A0"></path>
        </g>
    </symbol>

    <symbol id="logo-samolet" viewBox="0 0 150 20">
        <g>
            <path d="M66.4699 1.32721C66.4699 0.718586 66.3005 0.4819 65.6697 0.503032C64.0695 0.541071 62.465 0.553751 60.8647 0.503032C60.5807 0.460169 60.2909 0.527324 60.0548 0.690754C59.8187 0.854183 59.6541 1.10153 59.5947 1.38215C58.113 5.43541 56.5805 9.47598 55.0607 13.5166C54.9591 13.7955 54.8278 14.0576 54.6373 14.4675C54.4722 14.0449 54.3791 13.8505 54.2986 13.6222C52.745 9.5267 51.1828 5.43963 49.6418 1.33144C49.5845 1.06042 49.4252 0.821692 49.1968 0.664431C48.9684 0.507169 48.6883 0.443352 48.4141 0.486127C46.7842 0.532618 45.1501 0.545298 43.5202 0.486127C42.7074 0.456541 42.5381 0.743946 42.5423 1.5005C42.5719 7.1852 42.5423 12.8699 42.5423 18.5546C42.5423 18.8674 42.5719 19.1801 42.5889 19.5605C43.7235 19.5605 44.7606 19.5182 45.7936 19.5605C46.5175 19.6028 46.6869 19.3323 46.6826 18.6476C46.653 14.738 46.6826 10.8327 46.6826 6.92315V6.06094C46.9335 6.31195 47.1208 6.61914 47.2288 6.95696C48.757 10.9046 50.3023 14.8437 51.7967 18.7913C51.8537 19.0455 52.0062 19.2683 52.2228 19.4138C52.4393 19.5592 52.7035 19.6163 52.9609 19.5732C53.9388 19.5267 54.921 19.5352 55.8989 19.5732C56.1169 19.6091 56.3404 19.5584 56.5215 19.4321C56.7026 19.3057 56.8271 19.1137 56.8684 18.8969C57.4907 17.2063 58.1384 15.5157 58.8031 13.8251C59.8417 11.1201 60.8817 8.41794 61.9231 5.71859L62.156 5.74395V19.569C63.3583 19.569 64.4801 19.5352 65.5935 19.569C66.2455 19.5943 66.4656 19.3999 66.4402 18.7237C66.4374 12.9277 66.4473 7.12884 66.4699 1.32721Z" fill="#007BFB"></path>
            <path d="M34.3545 0.88731C32.9341 0.271464 31.3974 -0.0311067 29.8492 0.000258519C28.3011 0.0316237 26.7779 0.396186 25.3838 1.06905C23.3136 2.04538 22.1198 3.7994 21.6329 6.17472C23.013 6.38182 24.2873 6.59737 25.57 6.7453C25.7224 6.7453 25.9934 6.56356 26.0696 6.39872C27.3396 4.20937 28.5758 3.61766 31.1497 4.03608C33.004 4.33617 34.1132 6.04792 33.6263 7.97945C32.0811 7.97945 30.502 7.87379 28.9695 8.00904C27.4956 8.09372 26.0401 8.37809 24.6429 8.85434C21.9123 9.8983 20.5999 12.2863 20.9979 14.9744C21.3958 17.6625 23.4533 19.5771 26.2982 19.8983C29.0669 20.2068 31.6789 19.8645 34.0031 17.84C34.0327 18.5204 34.0539 19.0065 34.0793 19.5813C35.4044 19.5813 36.6194 19.5813 37.8894 19.556C38.0503 19.556 38.3382 19.1882 38.3382 18.9938C38.3382 15.0547 38.4398 11.1155 38.2874 7.18486C38.1561 4.42493 37.0554 2.00312 34.3545 0.88731ZM29.414 16.1071C28.6813 16.1558 27.9454 16.0974 27.2295 15.9338C26.7509 15.8203 26.3268 15.5439 26.0301 15.152C25.7334 14.7602 25.5827 14.2774 25.6039 13.7867C25.5846 13.3073 25.7347 12.8363 26.028 12.4562C26.3213 12.0761 26.7391 11.811 27.2084 11.7073C28.0389 11.4942 28.8911 11.3765 29.7485 11.3565C31.0989 11.2973 32.4494 11.3565 33.8634 11.3565C33.8465 14.0868 32.0769 15.993 29.414 16.1071Z" fill="#007BFB"></path>
            <path d="M130.865 7.1599C130.63 5.49061 129.866 3.94012 128.685 2.7349C127.505 1.52968 125.969 0.732859 124.303 0.460828C123.041 0.280027 121.765 0.226221 120.493 0.30022C118.789 0.333814 117.138 0.901665 115.775 1.92339C114.412 2.94512 113.406 4.36896 112.898 5.99337C112.076 8.52004 112.031 11.2343 112.767 13.7871C113.119 15.193 113.853 16.4742 114.89 17.4888C115.926 18.5034 117.224 19.2117 118.639 19.5352C120.945 20.1649 123.39 20.0764 125.645 19.2816C126.848 18.8879 127.94 18.2125 128.829 17.3119C129.718 16.4112 130.378 15.3114 130.755 14.1041C129.459 13.8674 128.249 13.635 127.034 13.449C126.923 13.4538 126.814 13.4838 126.717 13.5365C126.619 13.5892 126.535 13.6633 126.47 13.7533C125.128 15.8412 123.143 16.3738 120.831 16.1033C118.52 15.8328 116.683 13.5673 117.076 11.3738H131.076C131.076 10.8116 131.098 10.3425 131.076 9.87757C131.056 8.96846 130.986 8.06117 130.865 7.1599ZM117.047 7.64172C117.25 5.43124 119.134 3.93505 121.704 3.90546C124.349 3.87165 126.195 5.27486 126.496 7.64172H117.047Z" fill="#007BFB"></path>
            <path d="M89.1059 8.21626C89.0611 6.37824 88.3859 4.61122 87.1931 3.2104C86.0004 1.80958 84.3623 0.859802 82.5525 0.519728C80.8558 0.253319 79.1333 0.189472 77.4215 0.329533C75.5842 0.459108 73.8467 1.2123 72.4975 2.46399C71.1482 3.71568 70.2685 5.39053 70.0045 7.21034C69.7759 9.06019 69.7759 10.9311 70.0045 12.7809C70.4024 16.0354 72.3498 18.2501 75.4233 19.3109C78.0545 20.2217 80.9161 20.2217 83.5473 19.3109C86.5616 18.2966 88.4116 16.1241 89.0043 12.9711C89.1296 12.0039 89.1974 11.0301 89.2075 10.0548H89.1059C89.1059 9.45464 89.1355 8.83334 89.1059 8.21626ZM84.4956 11.3059C84.4025 14.3194 82.3365 16.1917 79.28 16.0438C76.2234 15.8959 74.5089 14.1588 74.4496 11.0734C74.4496 10.7184 74.4496 10.3633 74.4496 10.0083C74.4496 9.58566 74.4496 9.16301 74.4496 8.76571C74.53 5.88744 76.469 4.07425 79.462 4.07425C82.4551 4.07425 84.4152 5.85785 84.4914 8.72345C84.521 9.58989 84.5253 10.4479 84.4999 11.3059H84.4956Z" fill="#007BFB"></path>
            <path d="M109.003 1.45802C109.003 0.726825 108.804 0.494365 108.059 0.498592C103.727 0.532404 99.3975 0.532404 95.0709 0.498592C94.3808 0.498592 94.1607 0.680333 94.1565 1.39462C94.1395 4.91392 94.0859 8.43604 93.9956 11.961C93.9649 12.6746 93.8585 13.383 93.6781 14.0743C93.5941 14.4551 93.3836 14.7963 93.0808 15.0426C92.778 15.2889 92.4006 15.4258 92.0101 15.431C91.6557 15.4675 91.2992 15.4788 90.9433 15.4648C90.4225 15.431 90.177 15.6043 90.1939 16.1622C90.2236 17.0793 90.2193 17.9965 90.1939 18.9136C90.1939 19.3997 90.3463 19.6152 90.8586 19.5941C91.8069 19.5518 92.7594 19.5941 93.7035 19.518C95.943 19.3278 97.3273 18.2036 97.8396 16.01C98.1034 14.7972 98.2452 13.5612 98.2629 12.3202C98.3264 9.81389 98.2629 7.2991 98.2629 4.74627H104.346V19.5688C105.697 19.5688 106.908 19.5349 108.118 19.5688C108.813 19.5983 109.029 19.3828 109.024 18.6727C109.01 12.9387 109.003 7.20048 109.003 1.45802Z" fill="#007BFB"></path>
            <path d="M13.5505 13.5843C12.7292 15.3172 11.1967 16.0442 9.35093 16.0315C7.43317 16.0315 5.77788 15.2834 5.06666 13.4279C4.21067 11.2548 4.21067 8.83862 5.06666 6.66546C5.75671 4.89454 7.31463 4.12953 9.17735 4.08727C11.0401 4.045 12.6192 4.78888 13.5844 6.53021C13.7495 6.82184 14.0882 7.27831 14.2914 7.25295C15.6546 7.06698 17.005 6.77112 18.4402 6.4964C18.1351 5.28662 17.5569 4.16255 16.7498 3.2102C15.9426 2.25786 14.9279 1.50249 13.7834 1.00189C11.7936 0.0847345 9.68114 0.156586 7.58134 0.312968C5.81659 0.432771 4.14061 1.12998 2.81281 2.29669C1.48501 3.46339 0.579443 5.03453 0.236271 6.7669C-0.0128709 8.58728 -0.076699 10.4282 0.045765 12.2614C0.1008 14.1972 0.972895 15.8244 2.2641 17.2656C5.39687 20.7821 13.0044 20.7821 16.1583 17.553C17.3213 16.4343 18.1244 14.9954 18.4656 13.4195C17.2252 13.2462 16.0567 13.1278 14.9095 12.9081C14.2194 12.7644 13.8723 12.9038 13.5505 13.5843Z" fill="#007BFB"></path>
            <path d="M149.378 1.05674C149.378 0.86655 149.014 0.566466 148.798 0.541106C148.147 0.498823 147.494 0.490358 146.842 0.515747C142.185 0.515747 137.528 0.515747 132.872 0.515747C132.575 0.515747 132.025 0.777793 132.025 0.938401C131.949 2.13874 131.983 3.3433 131.983 4.64085H138.384V5.70594C138.384 10.0255 138.384 14.3492 138.384 18.673C138.384 18.9646 138.659 19.4929 138.807 19.5183C140.157 19.5859 141.516 19.5563 142.96 19.5563V4.6324H149.369C149.403 3.35176 149.433 2.20214 149.378 1.05674Z" fill="#007BFB"></path>
        </g>
    </symbol>

    <symbol id="logo-PIC" viewBox="0 0 54 54">
        <g>
            <path d="M1 34V18h15.533v16H12.05V21.968H5.483V34H1zm28.773-9.259L22.601 34h-3.983V18h4.483v9.259L30.273 18h3.983v16h-4.483v-9.259zm11.05 2.816V34h-4.482V18h4.483v6.635L46.182 18h5.233l-6.38 7.765L53 34h-6.026l-6.15-6.443z" fill="#FC4C02"></path>
        </g>
    </symbol>

</svg>