<svg width="512" height="512" viewBox="0 0 512 512" fill="none" xmlns="http://www.w3.org/2000/svg">
<path d="M256.001 228.606C240.85 228.563 228.533 240.809 228.49 255.959C228.447 271.108 240.694 283.424 255.846 283.467H255.901C271.051 283.495 283.356 271.236 283.384 256.087C283.411 240.938 271.152 228.634 256.001 228.606Z" fill="#A2DA4A"/>
<path d="M256.112 182.89H256.048C215.645 182.814 182.832 215.501 182.756 255.9C182.68 296.298 215.371 329.108 255.774 329.184C275.268 329.43 294.014 321.694 307.659 307.77C328.622 286.894 334.933 255.442 323.645 228.096C312.357 200.751 285.698 182.905 256.112 182.89ZM255.929 301.753H255.838C230.535 301.728 210.039 281.204 210.052 255.904C210.066 230.603 230.581 210.1 255.884 210.1C281.187 210.1 301.702 230.603 301.715 255.904C301.727 281.204 281.232 301.728 255.929 301.753Z" fill="#A2DA4A"/>
<path d="M87.9525 319.955C99.8785 307.779 113.834 297.774 129.193 290.385C141.084 283.756 154.571 280.53 168.176 281.059C159.059 249.459 167.756 215.4 190.908 192.038C164.808 167.795 131.533 152.693 96.0999 149.01C74.0033 146.203 51.8397 153.684 35.9671 169.308C24.1532 181.18 14.9447 195.383 8.92771 211.011C-3.50431 238.407 -2.92722 269.946 10.501 296.867C11.4881 298.87 12.5953 300.607 13.6645 302.427C24.2692 358.347 53.935 408.862 97.6091 445.365C100.102 447.546 103.58 448.209 106.701 447.097C109.821 445.985 112.096 443.273 112.648 440.008C113.2 436.742 111.941 433.432 109.36 431.358C76.3026 403.715 51.7487 367.279 38.5375 326.264C40.0578 327.074 41.62 327.8 43.2193 328.44C58.4107 335.465 76.3887 332.055 87.9525 319.955Z" fill="#A2DA4A"/>
<path d="M503.124 301.105C515.521 273.7 514.902 242.166 501.441 215.267C500.408 213.173 499.338 211.189 498.223 209.297C487.605 153.549 458.023 103.191 414.497 66.7699C411.998 64.6208 408.534 63.9827 405.433 65.1008C402.331 66.2188 400.072 68.92 399.52 72.1702C398.968 75.4204 400.207 78.7156 402.765 80.7957C435.678 108.349 460.129 144.645 473.296 185.497C471.841 184.83 470.369 184.19 468.842 183.668C453.662 176.645 435.696 180.048 424.136 192.134C412.198 204.316 398.235 214.33 382.867 221.731C370.972 228.353 357.49 231.591 343.885 231.093C353.015 262.721 344.29 296.813 321.088 320.168C347.197 344.362 380.447 359.441 415.85 363.142C437.984 365.928 460.177 358.445 476.102 342.826C487.92 330.955 497.124 316.744 503.124 301.105Z" fill="#A2DA4A"/>
<path d="M215.241 10.6656C213.326 11.5986 211.498 12.5737 209.754 13.5917C153.699 24.1043 103.063 53.8291 66.5626 97.6466C64.4633 100.151 63.8602 103.584 64.9794 106.653C66.0985 109.722 68.77 111.962 71.9885 112.527C75.207 113.093 78.4825 111.899 80.5809 109.395C108.144 76.3584 144.513 51.8149 185.467 38.6162C184.739 40.1303 184.089 41.6804 183.52 43.2615C176.587 58.4723 180.031 76.4034 192.106 87.963C204.228 99.9497 214.234 113.902 221.697 129.227C228.299 141.125 231.523 154.6 231.024 168.197C239.16 165.843 247.583 164.633 256.052 164.603H256.134C280.077 164.623 303.048 174.074 320.072 190.909C344.252 164.807 359.357 131.598 363.142 96.2205C365.959 74.0912 358.431 51.897 342.731 36.048C330.892 24.2164 316.707 14.9938 301.088 8.97447C273.707 -3.55925 242.107 -2.93621 215.241 10.6656Z" fill="#A2DA4A"/>
<path d="M210.974 503.126C238.382 515.525 269.921 514.903 296.821 501.435C298.86 500.438 300.661 499.305 302.518 498.208C358.389 487.726 408.87 458.128 445.298 414.491C447.483 411.993 448.143 408.507 447.023 405.384C445.902 402.259 443.176 399.988 439.901 399.449C436.625 398.91 433.316 400.188 431.252 402.788C403.699 435.804 367.302 460.281 326.33 473.348C327.118 471.888 327.823 470.386 328.443 468.849C335.382 453.638 331.941 435.702 319.865 424.138C307.786 412.145 297.822 398.197 290.394 382.882C283.778 370.999 280.539 357.532 281.03 343.941C272.867 346.272 264.419 347.46 255.929 347.47H255.746C231.829 347.427 208.894 337.956 191.919 321.11C167.742 347.225 152.665 380.462 148.941 415.853C146.116 437.981 153.602 460.181 169.25 476.081C181.123 487.901 195.334 497.113 210.974 503.126Z" fill="#A2DA4A"/>
</svg>
